<?xml version="1.0" encoding="utf-8"?>
<!-- Generator: Adobe Illustrator 24.1.0, SVG Export Plug-In . SVG Version: 6.00 Build 0)  -->
<svg version="1.1" id="Layer_1" xmlns="http://www.w3.org/2000/svg" xmlns:xlink="http://www.w3.org/1999/xlink" x="0px" y="0px"
	 viewBox="0 0 1920 180" style="enable-background:new 0 0 1920 180;" xml:space="preserve">
<g>
	<g>
		<path d="M230.1,50.2v34.7h23.4v29.6h-23.4v42.7H195V20.8h70.2v29.5H230.1z"/>
		<path d="M383.9,128.2h-81.7l-14.6,29.1h-38.6l70.4-136.5h47.4l70.6,136.5h-38.8L383.9,128.2z M370.8,102.1l-27.7-55.4l-27.9,55.4
			H370.8z"/>
		<path d="M843.2,117.5c0,23-13.5,39.8-44.5,39.8H445.7V20.8h348.4c31,0,40.6,15.8,40.6,35.9c0,9.6-3.9,18.9-10.7,26.5
			C835.6,90.4,843.2,101.7,843.2,117.5z M480.8,74.4h300.6h0.2c9.4,0,17.9,0,17.9-14.2c0-14-8.6-14-18.1-14H480.8V74.4z
			 M808.1,115.7c0-14.4-8.6-14.4-17.9-14.4H480.8v28.9h309.4C799.5,130.2,808.1,130.2,808.1,115.7z"/>
	</g>
	<g>
		<path d="M889.4,109.7c0,14.4,11.7,21,56,21c36.8,0,47.8-4.1,47.8-14.8c0-11.3-7.8-13.2-51.9-15.4c-59.3-2.7-82.9-12.1-82.9-42.6
			c0-30,30.5-39.5,81.5-39.5c51.3,0,82.5,12.8,82.5,46.5h-35c0-15-15-18.7-51.3-18.7c-34.4,0-42.6,3.3-42.6,13.4
			c0,10.5,8.2,12.4,47.8,14.8c53.7,2.9,86.9,5.8,86.9,40.3c0,36.4-34.4,43.8-84.8,43.8c-55.8,0-89.1-9.5-89.1-48.8H889.4z"/>
		<path d="M1122.6,18.5c54.3,0,81.5,20.6,85,59.9H1172c-3.3-22-20.2-30.5-49.4-30.5c-35.6,0-50.6,12.6-50.6,40.5
			c0,28,15.2,40.8,50.6,40.8c29,0,46.1-8.8,49.4-30.9h35.6c-3.5,39.5-30.7,60.3-85,60.3c-59.9,0-85.6-24.9-85.6-70.2
			C1037,43.2,1062.6,18.5,1122.6,18.5z"/>
		<path d="M1309.9,20.4v136.1h-35v-53.3h-19.7v53.3h-35V20.4h35v53.3h19.7V20.4H1309.9z"/>
		<path d="M1321.6,88.3c0-45.1,25.7-69.8,85.6-69.8c59.7,0,85.6,24.9,85.6,69.8c0,45.1-25.9,70.2-85.6,70.2
			C1347.3,158.5,1321.6,133.6,1321.6,88.3z M1457.8,88.3c0-27.6-14-40.5-50.6-40.5c-36.6,0-50.6,12.6-50.6,40.5
			c0,28,14.2,40.8,50.6,40.8C1443.6,129.1,1457.8,116.1,1457.8,88.3z"/>
		<path d="M1462.6,88.3c0-45.1,25.7-69.8,85.6-69.8c59.7,0,85.6,24.9,85.6,69.8c0,45.1-25.9,70.2-85.6,70.2
			C1488.2,158.5,1462.6,133.6,1462.6,88.3z M1598.7,88.3c0-27.6-14-40.5-50.6-40.5c-36.6,0-50.6,12.6-50.6,40.5
			c0,28,14.2,40.8,50.6,40.8C1584.5,129.1,1598.7,116.1,1598.7,88.3z"/>
		<path d="M1715.5,127.2v29.4h-69.2V20.4h35v106.8H1715.5z"/>
		<path d="M1757.7,109.7c0,14.4,11.7,21,56,21c36.8,0,47.8-4.1,47.8-14.8c0-11.3-7.8-13.2-51.9-15.4c-59.3-2.7-82.9-12.1-82.9-42.6
			c0-30,30.5-39.5,81.5-39.5c51.3,0,82.5,12.8,82.5,46.5h-35c0-15-15-18.7-51.3-18.7c-34.4,0-42.6,3.3-42.6,13.4
			c0,10.5,8.2,12.4,47.8,14.8c53.7,2.9,86.9,5.8,86.9,40.3c0,36.4-34.4,43.8-84.8,43.8c-55.8,0-89.1-9.5-89.1-48.8H1757.7z"/>
	</g>
	<path d="M1920,1.1H173.5v0.5H-0.2v178.2H178v-0.5h1742V1.1z M173,174.8H4.9V6.7H173V174.8z M1914.9,174.3H178.5V6.2h1736.4V174.3z"
		/>
	<path d="M121.8,116.8c-6.4,3.7-11.5,0.7-11.6-6.6c0-7.3,5.1-16.2,11.5-19.9c4-2.3,7.6-2,9.7,0.4l13.8-8V57.3l-58-33.4L65.6,36.3
		l15.2,8.8c5.2-0.6,10.8,0.2,14.8,2.6c6.4,3.7,6.4,9.6,0.1,13.3c-6.3,3.7-16.6,3.7-23,0c-4-2.3-5.5-5.6-4.5-8.6L53,43.6L29.3,57.3
		v66.8l7.3,4.2c2.7-10.6,4.8-21.9,6-34.1c0.8-7.7,1.3-15.5,1.5-23.3c14.6,24.2,28.8,55.9,38.6,84l4.5,2.6l58-33.4V97.3l-13.8,7.9
		C129.3,110,125.8,114.5,121.8,116.8z"/>
</g>
</svg>
